<?xml version="1.0" standalone="no"?>
<!DOCTYPE svg PUBLIC "-//W3C//DTD SVG 20010904//EN"
 "http://www.w3.org/TR/2001/REC-SVG-20010904/DTD/svg10.dtd">
<svg version="1.0" xmlns="http://www.w3.org/2000/svg"
 width="260.000000pt" height="260.000000pt" viewBox="0 0 260.000000 260.000000"
 preserveAspectRatio="xMidYMid meet">
<metadata>
Created by potrace 1.14, written by Peter Selinger 2001-2017
</metadata>
<g transform="translate(0.000000,260.000000) scale(0.100000,-0.100000)"
fill="#000000" stroke="none">
<path d="M1169 2596 c-2 -2 -24 -6 -49 -10 -171 -22 -351 -86 -488 -173 -29
-18 -55 -33 -58 -33 -16 0 -179 -145 -250 -222 -112 -122 -251 -380 -278 -516
-1 -9 -6 -24 -9 -32 -6 -18 -16 -68 -25 -130 -9 -61 -9 -304 0 -360 17 -107
24 -135 61 -245 105 -317 347 -591 657 -742 73 -36 180 -77 230 -88 151 -36
175 -38 320 -39 203 -1 314 16 459 71 112 42 287 134 311 162 3 4 17 14 31 23
61 39 188 165 251 251 22 28 44 59 51 68 32 42 98 172 129 254 69 183 83 263
82 470 0 148 -3 181 -29 292 -23 94 -23 94 -45 148 -4 11 -16 40 -25 65 -58
158 -222 377 -371 496 -169 134 -379 233 -579 271 -72 14 -365 29 -376 19z
m276 -50 c103 -13 117 -16 198 -40 168 -49 306 -119 432 -221 28 -22 56 -44
63 -50 53 -42 159 -166 220 -260 62 -94 155 -312 155 -362 0 -7 3 -13 7 -13 3
0 6 -8 7 -17 1 -10 4 -34 7 -53 35 -236 25 -400 -36 -600 -59 -195 -184 -396
-335 -540 -117 -112 -331 -242 -453 -275 -3 -1 -12 -4 -20 -7 -77 -27 -155
-44 -265 -56 -65 -8 -221 -7 -270 1 -16 3 -48 8 -70 11 -197 33 -425 135 -570
256 -37 31 -162 155 -195 195 -40 48 -125 184 -158 255 -33 71 -78 205 -87
259 -3 19 -8 37 -10 40 -7 12 -18 147 -19 221 0 287 77 521 254 770 32 44 172
185 229 230 171 135 413 235 625 256 22 2 41 5 42 7 5 5 199 -1 249 -7z"/>
<path d="M1100 2504 c-41 -8 -84 -16 -95 -17 -12 -2 -25 -6 -31 -10 -6 -3 -21
-8 -35 -10 -61 -12 -212 -84 -323 -156 -81 -52 -243 -209 -307 -296 -122 -168
-210 -407 -225 -617 -8 -104 -8 -88 0 -188 6 -80 8 -100 21 -160 3 -14 7 -34
9 -45 2 -11 9 -33 16 -50 6 -16 12 -32 12 -35 3 -23 51 -144 64 -160 7 -8 13
-19 13 -25 0 -5 28 -53 63 -105 144 -220 379 -403 634 -490 31 -11 60 -17 64
-15 5 3 11 1 14 -4 3 -5 26 -12 52 -16 25 -3 56 -9 67 -11 106 -25 400 -9 492
26 14 5 25 8 25 5 0 -2 19 3 43 11 23 9 47 17 52 18 24 6 151 68 208 103 170
102 339 276 431 445 36 65 95 199 101 227 2 9 11 45 20 81 9 36 19 76 22 90 9
51 11 316 3 360 -5 25 -11 64 -15 88 -14 98 -127 378 -157 390 -4 2 -8 8 -8
13 0 9 -32 59 -55 85 -5 6 -30 35 -55 65 -59 69 -79 88 -175 164 -73 57 -245
161 -245 148 0 -3 -6 -1 -12 5 -7 5 -48 22 -91 36 -70 24 -97 31 -192 51 -63
14 -329 13 -405 -1z"/>
</g>
</svg>
