<svg width="92" height="19" viewBox="0 0 92 19" fill="none" xmlns="http://www.w3.org/2000/svg">
<path d="M0.872 18V1.08H8.264C10.12 1.08 11.552 1.52 12.56 2.4C13.584 3.28 14.096 4.504 14.096 6.072C14.096 7.112 13.864 8 13.4 8.736C12.952 9.472 12.304 10.04 11.456 10.44C10.608 10.824 9.608 11.016 8.456 11.016L8.792 10.56H9.608C10.28 10.56 10.88 10.736 11.408 11.088C11.936 11.44 12.368 11.976 12.704 12.696L15.176 18H11.768L9.272 12.504C9.048 11.944 8.704 11.576 8.24 11.4C7.792 11.224 7.248 11.136 6.608 11.136H3.968V18H0.872ZM3.968 8.856H7.76C8.848 8.856 9.672 8.632 10.232 8.184C10.808 7.72 11.096 7.048 11.096 6.168C11.096 5.288 10.808 4.624 10.232 4.176C9.672 3.728 8.848 3.504 7.76 3.504H3.968V8.856ZM22.6509 18.24C21.4029 18.24 20.3229 17.984 19.4109 17.472C18.4989 16.96 17.7869 16.232 17.2749 15.288C16.7789 14.344 16.5309 13.224 16.5309 11.928C16.5309 10.632 16.7789 9.52 17.2749 8.592C17.7869 7.648 18.4989 6.92 19.4109 6.408C20.3229 5.896 21.4029 5.64 22.6509 5.64C23.8989 5.64 24.9789 5.896 25.8909 6.408C26.8189 6.92 27.5309 7.648 28.0269 8.592C28.5389 9.52 28.7949 10.632 28.7949 11.928C28.7949 13.224 28.5389 14.344 28.0269 15.288C27.5309 16.232 26.8189 16.96 25.8909 17.472C24.9789 17.984 23.8989 18.24 22.6509 18.24ZM22.6509 15.936C23.5949 15.936 24.3469 15.608 24.9069 14.952C25.4669 14.28 25.7469 13.272 25.7469 11.928C25.7469 10.584 25.4669 9.584 24.9069 8.928C24.3469 8.272 23.5949 7.944 22.6509 7.944C21.7069 7.944 20.9549 8.272 20.3949 8.928C19.8349 9.584 19.5549 10.584 19.5549 11.928C19.5549 13.272 19.8349 14.28 20.3949 14.952C20.9549 15.608 21.7069 15.936 22.6509 15.936ZM36.854 18.24C35.606 18.24 34.526 17.984 33.614 17.472C32.702 16.96 31.99 16.232 31.478 15.288C30.982 14.344 30.734 13.224 30.734 11.928C30.734 10.632 30.982 9.52 31.478 8.592C31.99 7.648 32.702 6.92 33.614 6.408C34.526 5.896 35.606 5.64 36.854 5.64C38.102 5.64 39.182 5.896 40.094 6.408C41.022 6.92 41.734 7.648 42.23 8.592C42.742 9.52 42.998 10.632 42.998 11.928C42.998 13.224 42.742 14.344 42.23 15.288C41.734 16.232 41.022 16.96 40.094 17.472C39.182 17.984 38.102 18.24 36.854 18.24ZM36.854 15.936C37.798 15.936 38.55 15.608 39.11 14.952C39.67 14.28 39.95 13.272 39.95 11.928C39.95 10.584 39.67 9.584 39.11 8.928C38.55 8.272 37.798 7.944 36.854 7.944C35.91 7.944 35.158 8.272 34.598 8.928C34.038 9.584 33.758 10.584 33.758 11.928C33.758 13.272 34.038 14.28 34.598 14.952C35.158 15.608 35.91 15.936 36.854 15.936ZM52.5211 18.24C51.4971 18.24 50.6011 17.992 49.8331 17.496C49.0651 16.984 48.5531 16.296 48.2971 15.432H48.5611V18H45.5851V0.335999H48.5851V8.352H48.2971C48.5691 7.52 49.0891 6.864 49.8571 6.384C50.6251 5.888 51.5131 5.64 52.5211 5.64C53.5931 5.64 54.5291 5.896 55.3291 6.408C56.1291 6.92 56.7531 7.648 57.2011 8.592C57.6491 9.52 57.8731 10.64 57.8731 11.952C57.8731 13.264 57.6491 14.392 57.2011 15.336C56.7531 16.264 56.1211 16.984 55.3051 17.496C54.5051 17.992 53.5771 18.24 52.5211 18.24ZM51.6811 15.936C52.6251 15.936 53.3851 15.608 53.9611 14.952C54.5531 14.296 54.8491 13.296 54.8491 11.952C54.8491 10.608 54.5531 9.608 53.9611 8.952C53.3851 8.28 52.6251 7.944 51.6811 7.944C50.7371 7.944 49.9771 8.272 49.4011 8.928C48.8251 9.584 48.5371 10.584 48.5371 11.928C48.5371 13.272 48.8251 14.28 49.4011 14.952C49.9771 15.608 50.7371 15.936 51.6811 15.936ZM66.3239 18.24C64.2919 18.24 62.6999 17.68 61.5479 16.56C60.3959 15.44 59.8199 13.904 59.8199 11.952C59.8199 10.688 60.0679 9.584 60.5639 8.64C61.0599 7.696 61.7479 6.96 62.6279 6.432C63.5239 5.904 64.5639 5.64 65.7479 5.64C66.9159 5.64 67.8919 5.888 68.6759 6.384C69.4599 6.88 70.0519 7.576 70.4519 8.472C70.8679 9.368 71.0759 10.416 71.0759 11.616V12.408H62.2439V10.824H68.9399L68.5319 11.16C68.5319 10.04 68.2919 9.184 67.8119 8.592C67.3479 8 66.6679 7.704 65.7719 7.704C64.7799 7.704 64.0119 8.056 63.4679 8.76C62.9399 9.464 62.6759 10.448 62.6759 11.712V12.024C62.6759 13.336 62.9959 14.32 63.6359 14.976C64.2919 15.616 65.2119 15.936 66.3959 15.936C67.0839 15.936 67.7239 15.848 68.3159 15.672C68.9239 15.48 69.4999 15.176 70.0439 14.76L70.9319 16.776C70.3559 17.24 69.6679 17.6 68.8679 17.856C68.0679 18.112 67.2199 18.24 66.3239 18.24ZM73.6164 18V8.904C73.6164 8.408 73.6004 7.904 73.5684 7.392C73.5364 6.88 73.4884 6.376 73.4244 5.88H76.3284L76.5684 8.28H76.2804C76.6644 7.432 77.2324 6.784 77.9844 6.336C78.7364 5.872 79.6084 5.64 80.6004 5.64C82.0244 5.64 83.0964 6.04 83.8164 6.84C84.5364 7.64 84.8964 8.888 84.8964 10.584V18H81.8964V10.728C81.8964 9.752 81.7044 9.056 81.3204 8.64C80.9524 8.208 80.3924 7.992 79.6404 7.992C78.7124 7.992 77.9764 8.28 77.4324 8.856C76.8884 9.432 76.6164 10.2 76.6164 11.16V18H73.6164ZM87.7413 18V14.664H91.1013V18H87.7413Z" fill="#5F2EEA"/>
</svg>
